<svg xmlns="http://www.w3.org/2000/svg" width="800" height="400" viewBox="0 0 800 400" fill="none">
  <rect width="800" height="400" fill="#F3F4F6"/>
  <rect width="800" height="100" fill="#EFF6FF"/>
  <rect x="300" y="30" width="200" height="40" rx="20" fill="#3B82F6"/>
  <text x="400" y="55" font-family="Arial" font-size="16" fill="white" text-anchor="middle" dominant-baseline="middle">MediScan App</text>
  
  <rect x="50" y="120" width="300" height="250" rx="10" fill="white" stroke="#E5E7EB"/>
  <text x="200" y="150" font-family="Arial" font-size="18" font-weight="bold" fill="#111827" text-anchor="middle">AI Medicine Scanner</text>
  <text x="200" y="180" font-family="Arial" font-size="14" fill="#6B7280" text-anchor="middle">Find medicine information instantly</text>
  
  <rect x="80" y="200" width="240" height="140" rx="8" fill="#EFF6FF"/>
  <circle cx="120" cy="230" r="15" fill="#3B82F6"/>
  <text x="120" y="235" font-family="Arial" font-size="14" fill="white" text-anchor="middle" dominant-baseline="middle">1</text>
  <text x="200" y="230" font-family="Arial" font-size="14" fill="#111827">Scan Medicine</text>
  
  <circle cx="120" cy="270" r="15" fill="#3B82F6"/>
  <text x="120" y="275" font-family="Arial" font-size="14" fill="white" text-anchor="middle" dominant-baseline="middle">2</text>
  <text x="200" y="270" font-family="Arial" font-size="14" fill="#111827">Get AI Analysis</text>
  
  <circle cx="120" cy="310" r="15" fill="#3B82F6"/>
  <text x="120" y="315" font-family="Arial" font-size="14" fill="white" text-anchor="middle" dominant-baseline="middle">3</text>
  <text x="200" y="310" font-family="Arial" font-size="14" fill="#111827">Learn About Medicine</text>
  
  <rect x="450" y="120" width="300" height="250" rx="10" fill="white" stroke="#E5E7EB"/>
  <rect x="480" y="150" width="240" height="190" rx="20" fill="#3B82F6"/>
  <rect x="490" y="170" width="220" height="150" rx="10" fill="white"/>
  
  <circle cx="600" cy="220" r="35" stroke="#3B82F6" stroke-width="2" stroke-dasharray="4 2" fill="none"/>
  <circle cx="600" cy="220" r="25" fill="#EFF6FF"/>
  <path d="M600 210V230M590 220H610" stroke="#3B82F6" stroke-width="2" stroke-linecap="round"/>
  
  <text x="600" y="260" font-family="Arial" font-size="12" fill="#6B7280" text-anchor="middle">Tap to scan medicine</text>
  
  <rect x="490" y="330" width="220" height="40" rx="20" fill="#3B82F6"/>
  <text x="600" y="355" font-family="Arial" font-size="14" fill="white" text-anchor="middle" dominant-baseline="middle">DOWNLOAD APP</text>
</svg>
